<?xml version="1.0" encoding="utf-8"?>
<!-- Generator: Adobe Illustrator 22.0.1, SVG Export Plug-In . SVG Version: 6.00 Build 0)  -->
<svg version="1.1" id="Isolation_Mode" xmlns="http://www.w3.org/2000/svg" xmlns:xlink="http://www.w3.org/1999/xlink" x="0px"
	 y="0px" viewBox="0 0 70.9 70.9" style="enable-background:new 0 0 70.9 70.9;" xml:space="preserve">
<style type="text/css">
	.st0{fill:#C9C9C9;}
	.st1{fill:#ED145B;}
</style>
<path class="st0" d="M62.2,52.1c-0.8,0-1.5-0.7-1.5-1.5c0-14-11.4-25.3-25.3-25.3c-14,0-25.3,11.4-25.3,25.3c0,0.8-0.7,1.5-1.5,1.5
	c-0.8,0-1.5-0.7-1.5-1.5C7,35,19.7,22.3,35.4,22.3C51,22.3,63.7,35,63.7,50.6C63.7,51.4,63,52.1,62.2,52.1"/>
<path class="st0" d="M30.5,20.2h-16c-0.8,0-1.5-0.7-1.5-1.5c0-0.8,0.7-1.5,1.5-1.5h16c0.8,0,1.5,0.7,1.5,1.5
	C32,19.5,31.3,20.2,30.5,20.2"/>
<path class="st0" d="M54.5,20.2h-15c-0.8,0-1.5-0.7-1.5-1.5c0-0.8,0.7-1.5,1.5-1.5h15c0.8,0,1.5,0.7,1.5,1.5
	C56,19.5,55.3,20.2,54.5,20.2"/>
<path class="st1" d="M34.7,23.7c-3.1,0-5.5-2.5-5.5-5.5s2.5-5.5,5.5-5.5c3,0,5.5,2.5,5.5,5.5S37.7,23.7,34.7,23.7 M34.7,15.7
	c-1.4,0-2.5,1.1-2.5,2.5c0,1.4,1.1,2.5,2.5,2.5s2.5-1.1,2.5-2.5C37.2,16.8,36.1,15.7,34.7,15.7"/>
<path class="st1" d="M66.9,56.7c0,0.8-0.7,1.5-1.5,1.5h-6c-0.8,0-1.5-0.7-1.5-1.5v-6c0-0.8,0.7-1.5,1.5-1.5h6c0.8,0,1.5,0.7,1.5,1.5
	V56.7z M60.9,55.2h3v-3h-3V55.2z"/>
<path class="st1" d="M63.9,22.7c0,0.8-0.7,1.5-1.5,1.5h-6c-0.8,0-1.5-0.7-1.5-1.5v-7c0-0.8,0.7-1.5,1.5-1.5h6c0.8,0,1.5,0.7,1.5,1.5
	V22.7z M57.9,21.2h3v-4h-3V21.2z"/>
<path class="st1" d="M15.9,22.7c0,0.8-0.7,1.5-1.5,1.5h-6c-0.8,0-1.5-0.7-1.5-1.5v-7c0-0.8,0.7-1.5,1.5-1.5h6c0.8,0,1.5,0.7,1.5,1.5
	V22.7z M9.9,21.2h3v-4h-3V21.2z"/>
<path class="st1" d="M12.9,56.7c0,0.8-0.7,1.5-1.5,1.5h-6c-0.8,0-1.5-0.7-1.5-1.5v-6c0-0.8,0.7-1.5,1.5-1.5h6c0.8,0,1.5,0.7,1.5,1.5
	V56.7z M6.9,55.2h3v-3h-3V55.2z"/>
</svg>
