<?xml version="1.0" encoding="utf-8"?>
<!-- Generator: Adobe Illustrator 22.0.1, SVG Export Plug-In . SVG Version: 6.00 Build 0)  -->
<svg version="1.1" id="Isolation_Mode" xmlns="http://www.w3.org/2000/svg" xmlns:xlink="http://www.w3.org/1999/xlink" x="0px"
	 y="0px" viewBox="0 0 70.9 70.9" style="enable-background:new 0 0 70.9 70.9;" xml:space="preserve">
<style type="text/css">
	.st0{fill:#C9C9C9;}
	.st1{fill:#ED145B;}
</style>
<path class="st0" d="M55.3,47.7H18.8c-0.7,0-1.3-0.5-1.5-1.1l-4.9-20c-0.1-0.4,0-0.9,0.3-1.3c0.3-0.4,0.7-0.6,1.2-0.6h11.2
	c0.8,0,1.5,0.7,1.5,1.5c0,0.8-0.7,1.5-1.5,1.5h-9.3l4.2,17h34.4l8.2-17H52.2c-0.8,0-1.5-0.7-1.5-1.5c0-0.8,0.7-1.5,1.5-1.5h12.7
	c0.5,0,1,0.3,1.3,0.7c0.3,0.4,0.3,1,0.1,1.4l-9.6,20C56.4,47.4,55.9,47.7,55.3,47.7"/>
<path class="st0" d="M64.7,58.7h-3.5c-0.8,0-1.5-0.7-1.5-1.5c0-0.8,0.7-1.5,1.5-1.5h2.4v-8h-43l1.4,8h2.2c0.8,0,1.5,0.7,1.5,1.5
	c0,0.8-0.7,1.5-1.5,1.5h-3.4c-0.7,0-1.4-0.5-1.5-1.2l-1.9-11c-0.1-0.4,0-0.9,0.3-1.2c0.3-0.3,0.7-0.5,1.1-0.5h45.8
	c0.8,0,1.9,0.7,1.9,1.5v11C66.6,58,65.5,58.7,64.7,58.7"/>
<path class="st0" d="M47.2,58.7h-10c-0.8,0-1.5-0.7-1.5-1.5c0-0.8,0.7-1.5,1.5-1.5h10c0.8,0,1.5,0.7,1.5,1.5
	C48.7,58,48,58.7,47.2,58.7"/>
<path class="st0" d="M54.1,64.8c-4,0-7.3-3.3-7.3-7.3s3.3-7.3,7.3-7.3c4,0,7.3,3.3,7.3,7.3S58.1,64.8,54.1,64.8 M54.1,53.3
	c-2.3,0-4.3,1.9-4.3,4.3s1.9,4.3,4.3,4.3c2.3,0,4.3-1.9,4.3-4.3S56.4,53.3,54.1,53.3"/>
<path class="st0" d="M31,64.8c-4,0-7.3-3.3-7.3-7.3s3.3-7.3,7.3-7.3s7.3,3.3,7.3,7.3S35,64.8,31,64.8 M31,53.3
	c-2.4,0-4.3,1.9-4.3,4.3s1.9,4.3,4.3,4.3c2.3,0,4.3-1.9,4.3-4.3S33.3,53.3,31,53.3"/>
<path class="st0" d="M20.8,58.1c-0.7,0-1.3-0.5-1.5-1.1L9.7,17.5c0-0.1,0-0.2,0-0.4c0-0.7-0.7-1.2-1.5-1.2c-0.8,0-1.5,0.7-1.5,1.6
	c0,0.5,0.3,1,0.7,1.3c0.7,0.5,0.9,1.4,0.4,2.1c-0.5,0.7-1.4,0.9-2.1,0.4c-1.3-0.9-2.1-2.3-2.1-3.8c0-2.5,2-4.6,4.5-4.6
	c2.4,0,4.4,1.8,4.5,4l9.6,39.3c0.2,0.8-0.3,1.6-1.1,1.8C21,58.1,20.9,58.1,20.8,58.1"/>
<path class="st1" d="M39.4,38.1L39.4,38.1c-1.4,0-2.7-0.7-3.5-1.9l-6.7-10.4c-0.9-1.3-0.9-3.2,0-4.8c0.7-1.4,2-2.2,3.4-2.2h2.1V9.4
	c0-1.5,1.1-2.7,2.4-2.7h6c0.4,0,2.6,0.1,2.6,2.7v9.3h0.7c1.4,0,2.7,0.8,3.4,2.3c0.8,1.6,0.8,3.5-0.2,4.8l-7,10.7
	C41.8,37.5,40.7,38.1,39.4,38.1 M32.6,21.7c-0.3,0-0.6,0.3-0.7,0.6c-0.3,0.6-0.4,1.4-0.1,1.8l6.7,10.4c0.3,0.4,0.7,0.5,1,0.5
	c0.3,0,0.5-0.1,0.7-0.3l7-10.7c0.3-0.4,0.3-1.1,0-1.7c-0.2-0.3-0.5-0.6-0.8-0.6h-3.7v-12h-5.4c0,0,0.4,0,0.4,0v12H32.6z"/>
</svg>
