<?xml version="1.0" encoding="utf-8"?>
<!-- Generator: Adobe Illustrator 22.0.1, SVG Export Plug-In . SVG Version: 6.00 Build 0)  -->
<svg version="1.1" id="Isolation_Mode" xmlns="http://www.w3.org/2000/svg" xmlns:xlink="http://www.w3.org/1999/xlink" x="0px"
	 y="0px" viewBox="0 0 70.9 70.9" style="enable-background:new 0 0 70.9 70.9;" xml:space="preserve">
<style type="text/css">
	.st0{fill:#C9C9C9;}
	.st1{fill:#ED145B;}
</style>
<path class="st0" d="M56.9,57.4c0,5.2-4.3,9.5-9.5,9.5h-24c-5.2,0-9.5-4.3-9.5-9.5v-44c0-5.2,4.3-9.5,9.5-9.5h24
	c5.2,0,9.5,4.3,9.5,9.5V57.4z M53.9,13.4c0-3.6-2.9-6.5-6.5-6.5h-24c-3.6,0-6.5,2.9-6.5,6.5v44c0,3.6,2.9,6.5,6.5,6.5h24
	c3.6,0,6.5-2.9,6.5-6.5V13.4z"/>
<path class="st0" d="M56.9,56.4c0,0.8-0.7,1.5-1.5,1.5h-40c-0.8,0-1.5-0.7-1.5-1.5v-43c0-0.8,0.7-1.5,1.5-1.5h40
	c0.8,0,1.5,0.7,1.5,1.5V56.4z M16.9,54.9h37v-40h-37V54.9z"/>
<path class="st1" d="M37.9,9.6c0,1.1-0.9,2-2,2s-2-0.9-2-2s0.9-2,2-2S37.9,8.5,37.9,9.6"/>
<path class="st1" d="M38.5,61.9h-5c-0.8,0-1.5-0.7-1.5-1.5c0-0.8,0.7-1.5,1.5-1.5h5c0.8,0,1.5,0.7,1.5,1.5
	C40,61.3,39.3,61.9,38.5,61.9"/>
<path class="st1" d="M38.4,42.9L38.4,42.9c-0.8,0-1.5-0.9-1.5-1.7c0-7.5-4.6-8.3-5.1-8.4c-0.8-0.1-1.4-0.9-1.4-1.7
	c0.1-0.8,0.8-1.5,1.6-1.4c0.1,0,7.8,0.9,7.8,11.4C39.9,42.1,39.3,42.9,38.4,42.9"/>
<path class="st1" d="M45.3,41.9L45.3,41.9c-0.8,0-1.5-0.7-1.5-1.6c0-13.3-8.9-14.2-9-14.2c-0.8-0.1-1.4-0.8-1.4-1.6
	c0.1-0.8,0.8-1.5,1.6-1.4c0.1,0,11.8,1.1,11.7,17.2C46.8,41.2,46.1,41.9,45.3,41.9"/>
</svg>
